<?xml version="1.0" encoding="UTF-8" standalone="no"?>
<!-- Created with Inkscape (http://www.inkscape.org/) -->

<svg
   xmlns:dc="http://purl.org/dc/elements/1.1/"
   xmlns:cc="http://creativecommons.org/ns#"
   xmlns:rdf="http://www.w3.org/1999/02/22-rdf-syntax-ns#"
   xmlns:svg="http://www.w3.org/2000/svg"
   xmlns="http://www.w3.org/2000/svg"
   xmlns:sodipodi="http://sodipodi.sourceforge.net/DTD/sodipodi-0.dtd"
   xmlns:inkscape="http://www.inkscape.org/namespaces/inkscape"
   width="51.298752mm"
   height="42.768208mm"
   viewBox="0 0 51.298752 42.768208"
   version="1.1"
   id="svg8"
   sodipodi:docname="equinor-logo.svg"
   inkscape:version="0.92.3 (2405546, 2018-03-11)">
  <defs
     id="defs2" />
  <sodipodi:namedview
     id="base"
     pagecolor="#00ffff"
     bordercolor="#666666"
     borderopacity="1.0"
     inkscape:pageopacity="0"
     inkscape:pageshadow="2"
     inkscape:zoom="0.7"
     inkscape:cx="106.89926"
     inkscape:cy="-112.30337"
     inkscape:document-units="mm"
     inkscape:current-layer="layer1"
     showgrid="false"
     inkscape:window-width="1920"
     inkscape:window-height="1001"
     inkscape:window-x="-9"
     inkscape:window-y="-9"
     inkscape:window-maximized="1"
     fit-margin-top="0"
     fit-margin-left="0"
     fit-margin-right="0"
     fit-margin-bottom="0" />
  <metadata
     id="metadata5">
    <rdf:RDF>
      <cc:Work
         rdf:about="">
        <dc:format>image/svg+xml</dc:format>
        <dc:type
           rdf:resource="http://purl.org/dc/dcmitype/StillImage" />
        <dc:title></dc:title>
      </cc:Work>
    </rdf:RDF>
  </metadata>
  <g
     inkscape:label="Layer 1"
     inkscape:groupmode="layer"
     id="layer1"
     transform="translate(-86.042589,-74.487086)">
    <g
       id="layer1-3"
       transform="matrix(0.10792611,0,0,0.10792611,84.703656,5.2496102)">
      <path
         style="fill:#ff033e;fill-opacity:1;fill-rule:evenodd;stroke:none;stroke-width:0.0996578;stroke-linecap:butt;stroke-linejoin:miter;stroke-miterlimit:4;stroke-dasharray:none;stroke-opacity:1"
         d="m 478.01015,642.85163 c 4.99332,-2.96464 9.17421,-0.92719 9.21089,5.84035 l 0.48344,87.97538 c 0.0403,7.19247 0.36406,6.81327 -5.82622,10.52301 l -76.84614,45.96897 c -4.58468,2.74297 -8.70811,0.28796 -8.72688,-4.88413 l -0.29346,-91.04072 c -0.0144,-5.1487 0.74967,-6.14458 4.93175,-8.62822 z"
         id="path5302"
         inkscape:connector-curvature="0" />
      <path
         style="fill:#ff033e;fill-opacity:1;fill-rule:evenodd;stroke:#ff033e;stroke-width:0.04148294;stroke-linecap:butt;stroke-linejoin:miter;stroke-miterlimit:4;stroke-dasharray:none;stroke-opacity:1"
         d="m 284.57304,817.55521 c -2.08731,1.21911 -2.18988,3.15217 0.26606,4.53221 l 31.92558,17.93958 c 2.61012,1.46667 2.40626,1.5087 5.00673,0.002 l 32.24948,-18.69027 c 1.92379,-1.11494 1.86207,-3.11209 -0.0176,-4.1627 l -33.07961,-18.48928 c -1.87088,-1.0457 -2.388,-0.96776 -4.13664,0.0536 z"
         id="path5294"
         inkscape:connector-curvature="0" />
      <path
         id="path5296"
         d="m 415.39214,817.82848 c -1.05051,0.61357 -1.10214,1.58648 0.13394,2.28104 l 16.06811,9.02899 c 1.31363,0.73817 1.21106,0.75932 2.51986,0.002 l 16.2311,-9.40685 c 0.96832,-0.56114 0.93721,-1.5663 -0.008,-2.09507 l -16.64896,-9.30573 c -0.9416,-0.52629 -1.20187,-0.48705 -2.08195,0.0267 z"
         style="fill:#ff033e;fill-opacity:1;fill-rule:evenodd;stroke:#ff033e;stroke-width:0.02087833;stroke-linecap:butt;stroke-linejoin:miter;stroke-miterlimit:4;stroke-dasharray:none;stroke-opacity:1"
         inkscape:connector-curvature="0" />
      <path
         style="fill:#ff033e;fill-opacity:1;fill-rule:evenodd;stroke:#ff033e;stroke-width:0.02087833;stroke-linecap:butt;stroke-linejoin:miter;stroke-miterlimit:4;stroke-dasharray:none;stroke-opacity:1"
         d="m 401.3472,844.52877 c -1.05412,-0.60734 -1.92431,-0.1692 -1.91363,1.24864 l 0.13882,18.43062 c 0.0114,1.50678 -0.0578,1.42823 1.24921,2.18842 l 16.22344,9.42002 c 0.96782,0.56202 1.82492,0.0365 1.81471,-1.047 l -0.18692,-19.07221 c -0.0107,-1.07865 -0.17385,-1.2851 -1.05672,-1.79405 z"
         id="path5298"
         inkscape:connector-curvature="0" />
      <path
         id="path5300"
         d="m 368.7362,845.53898 c 1.38557,-0.79834 2.52941,-0.2224 2.51533,1.64124 l -0.18247,24.22592 c -0.0149,1.98058 0.0758,1.87733 -1.64201,2.87657 l -21.32469,12.38202 c -1.27217,0.73877 -2.39877,0.048 -2.38536,-1.3762 l 0.24572,-25.06926 c 0.0142,-1.4178 0.2285,-1.6892 1.38897,-2.35815 z"
         style="fill:#ff033e;fill-opacity:1;fill-rule:evenodd;stroke:#ff033e;stroke-width:0.02744328;stroke-linecap:butt;stroke-linejoin:miter;stroke-miterlimit:4;stroke-dasharray:none;stroke-opacity:1"
         inkscape:connector-curvature="0" />
      <path
         id="path5304"
         d="m 314.04685,689.11669 c -3.50685,-2.02074 -6.40205,-0.56288 -6.36621,4.15388 l 0.46183,61.31584 c 0.0373,5.0129 -0.19178,4.75157 4.15593,7.28073 l 53.97269,31.33882 c 3.22001,1.86997 6.07141,0.1216 6.03752,-3.48308 l -0.62204,-63.45038 c -0.0366,-3.58836 -0.57826,-4.27544 -3.51537,-5.96839 z"
         style="fill:#ff033e;fill-opacity:1;fill-rule:evenodd;stroke:#ff033e;stroke-width:0.06945898;stroke-linecap:butt;stroke-linejoin:miter;stroke-miterlimit:4;stroke-dasharray:none;stroke-opacity:1"
         inkscape:connector-curvature="0" />
      <path
         style="fill:#ff033e;fill-opacity:1;fill-rule:evenodd;stroke:none;stroke-width:0.1;stroke-linecap:butt;stroke-linejoin:miter;stroke-miterlimit:4;stroke-dasharray:none;stroke-opacity:1"
         d="m 43.289062,319.79297 c -13.257945,0.12371 -31.319501,10.20658 -30.875,32.00976 0.119245,5.84899 2.38901,31.26677 31.50586,31.82227 11.815475,0.2255 19.378927,-4.17392 25.394531,-9.13672 1.189802,-0.9816 0.88395,-1.81543 0.503906,-2.39453 l -3.970703,-6.04883 c -0.471126,-0.7179 -1.35038,-0.57522 -2.078125,-0.12695 -5.577957,3.43587 -9.161221,6.96784 -19.849609,6.80664 -14.621086,-0.2205 -19.11915,-10.62681 -20.164063,-18.52734 h 46.441407 c 0.49699,0 0.968329,-0.57899 1.109375,-1.52149 2.289132,-15.29647 -7.553934,-33.07376 -28.017579,-32.88281 z m 0.01953,10.82031 c 11.955583,-0.0707 17.02967,9.31664 16.441406,13.72461 H 24.818359 c 0.25299,-2.14821 3.901228,-13.63831 18.490235,-13.72461 z"
         transform="translate(0,630.36214)"
         id="path5306"
         inkscape:connector-curvature="0" />
      <path
         style="fill:#ff033e;fill-opacity:1;fill-rule:evenodd;stroke:none;stroke-width:1px;stroke-linecap:butt;stroke-linejoin:miter;stroke-opacity:1"
         d="m 380.15677,1012.475 h 8.06565 c 0.83948,0 1.70135,-0.5439 1.70135,-1.7644 v -33.39017 l 28.41828,-17.67767 c 0.59775,-0.37183 0.82922,-1.12928 0.44194,-2.03293 l -2.91682,-6.8059 c -0.30244,-0.70569 -1.13084,-0.59229 -1.67937,-0.26517 l -24.3068,14.49569 -0.0884,-12.37437 c -0.008,-1.05139 -0.94538,-1.88597 -1.76775,-1.59099 l -8.13173,2.91682 c -0.91382,0.32778 -1.23744,1.4542 -1.23744,2.47487 v 54.35882 c 0,0.746 0.48755,1.6554 1.50109,1.6554 z"
         id="path5313"
         inkscape:connector-curvature="0" />
      <path
         style="fill:#ff033e;fill-opacity:1;stroke:none;stroke-width:0.1;stroke-miterlimit:4;stroke-dasharray:none;stroke-opacity:1"
         id="path5315"
         d="m 343.30035,984.12634 a 25.102291,25.102291 0 0 1 -0.0199,0.9997"
         inkscape:connector-curvature="0" />
      <path
         style="fill:#ff033e;fill-opacity:1;stroke:none;stroke-width:0.16703252;stroke-miterlimit:4;stroke-dasharray:none;stroke-opacity:1"
         d="m 338.4082,319.76758 a 31.128027,31.997705 0 0 0 -31.00781,32.07812 31.128027,31.997705 0 0 0 31.16602,31.91602 31.128027,31.997705 0 0 0 31.08984,-31.99805 l -0.002,-0.16211 a 31.128027,31.997705 0 0 0 -31.2461,-31.83398 z m 0.043,10.73242 a 20.201582,21.440363 0 0 1 20.27735,21.33203 v 0.10938 A 20.201582,21.440363 0 0 1 338.55276,373.38086 20.201582,21.440363 0 0 1 318.3262,351.99609 20.201582,21.440363 0 0 1 338.4512,330.5 Z"
         transform="translate(0,630.36214)"
         id="path5319"
         inkscape:connector-curvature="0" />
      <path
         style="fill:#ff033e;fill-opacity:1;fill-rule:evenodd;stroke:none;stroke-width:1px;stroke-linecap:butt;stroke-linejoin:miter;stroke-opacity:1"
         d="m 243.95184,1010.1125 v -53.56333 c 0,-1.19197 0.25021,-2.36072 1.59099,-2.82843 l 7.6014,-2.65165 c 1.12477,-0.39236 1.94454,0.41584 1.94454,1.59099 v 6.36397 c 3.98419,-4.29994 8.39546,-9.44132 20.15254,-9.01562 10.8929,0.39441 22.98097,9.01093 22.98097,24.74874 v 35.17853 c 0,1.4971 -0.0844,2.2981 -1.80974,2.2981 h -7.47823 c -1.24068,0 -1.84896,-0.7272 -1.84896,-1.9445 v -35.35535 c 0,-9.5761 -8.26516,-14.04894 -15.37957,-14.31891 -9.45329,-0.35873 -16.61701,6.82839 -16.61701,17.14733 v 32.88043 c 0,0.9342 -0.76192,1.7678 -1.59099,1.7678 h -7.42462 c -1.09463,0 -2.12132,-0.9717 -2.12132,-2.2981 z"
         id="path5324"
         inkscape:connector-curvature="0" />
      <path
         style="fill:#ff033e;fill-opacity:1;fill-rule:evenodd;stroke:none;stroke-width:1px;stroke-linecap:butt;stroke-linejoin:miter;stroke-opacity:1"
         d="m 219.875,943.36214 v -9.375 c 0,-0.96822 0.56456,-1.55925 1.5625,-1.9375 l 7.75,-2.9375 c 1.41313,-0.53562 2.3125,0.54953 2.3125,1.625 v 9.25 c 0,1.32766 -0.57206,2.11693 -1.75,2.5 l -7.6875,2.5 c -1.44435,0.46971 -2.1875,-0.72446 -2.1875,-1.625 z"
         id="path5326"
         inkscape:connector-curvature="0" />
      <path
         style="fill:#ff033e;fill-opacity:1;fill-rule:evenodd;stroke:none;stroke-width:1px;stroke-linecap:butt;stroke-linejoin:miter;stroke-opacity:1"
         d="m 220.1875,956.17464 v 53.62496 c 0,1.6778 0.61855,2.6875 1.6875,2.6875 H 229 c 1.31934,0 2.375,-0.7709 2.375,-1.9375 v -56.74996 c 0,-2.17641 -1.03053,-2.69916 -2.25,-2.3125 l -7.6875,2.4375 c -1.29619,0.41099 -1.25,1.47934 -1.25,2.25 z"
         id="path5328"
         inkscape:connector-curvature="0" />
      <path
         style="fill:#ff033e;fill-opacity:1;fill-rule:evenodd;stroke:none;stroke-width:1px;stroke-linecap:butt;stroke-linejoin:miter;stroke-opacity:1"
         d="m 207.375,1010.7371 c 0.002,0.7929 -0.66455,1.75 -1.875,1.75 h -7.125 c -0.82663,0 -2.0625,-0.6259 -2.0625,-1.9375 v -5 c -4.39011,6.1891 -11.11739,8.2224 -18.5,8.5 -12.39226,0.466 -20.44337,-8.5998 -22.6875,-16.74996 -1.52196,-5.52742 -1.8125,-10.5865 -1.8125,-15.625 v -25.0625 c 0,-1.2074 0.023,-2.30339 1.875,-3 L 162,951.04964 c 1.70608,-0.64174 2.5625,0.62027 2.5625,2 v 32.9375 c 0,9.51965 4.77227,16.81616 15.375,17.31246 13.21733,0.6187 16.375,-8.75725 16.375,-17.99996 v -28.5 c 0,-1.35552 0.45657,-2.43471 1.5,-2.8125 l 7.25,-2.625 c 0.9333,-0.33792 2.18474,0.47981 2.1875,1.75 z"
         id="path5330"
         inkscape:connector-curvature="0" />
      <path
         style="fill:#ff033e;fill-opacity:1;fill-rule:evenodd;stroke:none;stroke-width:0.1;stroke-linecap:butt;stroke-linejoin:miter;stroke-miterlimit:4;stroke-dasharray:none;stroke-opacity:1"
         d="m 112.1543,319.77148 c -0.47642,0.0105 -0.95553,0.0344 -1.43946,0.0723 -18.048388,1.41304 -30.705619,12.58947 -30.812496,32.50586 -0.06797,12.66551 7.952885,30.22759 29.876956,31.24609 7.79646,0.3622 14.85284,-2.63751 21.30078,-7.91211 v 28.79297 c 0,1.7035 0.50264,2.96794 2.51953,2.96094 l 6.31836,-0.0215 c 1.62635,-0.01 2.21094,-1.36124 2.21094,-2.96094 v -81.80274 c 0,-1.97985 -1.39635,-2.33332 -2.56446,-1.85742 l -7.1582,2.91797 c -0.79813,0.32517 -1.41406,1.06762 -1.41406,1.94336 v 2.65234 c -5.39163,-5.78227 -11.69164,-8.69516 -18.83789,-8.53711 z M 111.375,330.375 c 13.70049,0.33824 20.26546,10.9551 20,22.25 -0.25892,11.01681 -7.47172,20.9691 -20.625,20.375 -10.40414,-0.4699 -18.779066,-6.35958 -19.375,-21.125 -0.55614,-13.77943 10.39168,-21.73721 20,-21.5 z"
         transform="translate(0,630.36214)"
         id="path5338"
         inkscape:connector-curvature="0" />
    </g>
  </g>
</svg>
