<?xml version="1.0" encoding="UTF-8"?>
<svg xmlns="http://www.w3.org/2000/svg" xmlns:xlink="http://www.w3.org/1999/xlink" id="Layer_1" data-name="Layer 1" viewBox="0 0 490 140">
  <defs>
    <style>.cls-1{fill:none;}.cls-2{clip-path:url(#clip-path);}.cls-3{fill:#3408ac;}</style>
    <clipPath id="clip-path">
      <rect class="cls-1" x="3.58" y="3.09" width="482.84" height="133.82"></rect>
    </clipPath>
  </defs>
  <title>NORCE_Logo_Skjerm_Original</title>
  <g id="Artwork_5" data-name="Artwork 5">
    <g class="cls-2">
      <g class="cls-2">
        <path class="cls-3" d="M255.27,84.75h17.31l10.55,21.77h16l-13.44-27a26.14,26.14,0,0,0,9.12-20.11c0-14-10.45-25.37-23.34-25.37H240.93v72.5h14.34Zm0-37.83h13.38c6.75,0,11.47,5.58,11.47,12.47s-4.67,12.47-11.47,12.47H255.27Zm196.94.78v16h19.24V76.81H452.21v16h34.21v13.68H437.87V34h47.87V47.69ZM398.5,97.84a37.55,37.55,0,1,1-2.72-57.44l-8.51,11.54A23.21,23.21,0,1,0,373,93.48c6.29,0,12-2.89,16.05-6.27ZM62.77,34v72.5H48.12L17.92,60.26v46.25H3.58V34H17.9L48.43,80.75V34Z"></path>
        <path class="cls-3" d="M163.2,6.62a3.53,3.53,0,1,1-3.53-3.53,3.53,3.53,0,0,1,3.53,3.53"></path>
        <path class="cls-3" d="M131.6,10.75a3.53,3.53,0,1,1-3.53-3.53,3.53,3.53,0,0,1,3.53,3.53"></path>
        <path class="cls-3" d="M125.84,28.44a3.53,3.53,0,1,1-3.53-3.53,3.53,3.53,0,0,1,3.53,3.53"></path>
        <path class="cls-3" d="M109.45,25.56A3.53,3.53,0,1,1,105.92,22a3.53,3.53,0,0,1,3.53,3.53"></path>
        <path class="cls-3" d="M117.83,35.47a3.53,3.53,0,1,1-3.53-3.53,3.53,3.53,0,0,1,3.53,3.53"></path>
        <path class="cls-3" d="M109.24,48.08a3.53,3.53,0,1,1-3.53-3.53,3.53,3.53,0,0,1,3.53,3.53"></path>
        <path class="cls-3" d="M143.93,20.33a3.53,3.53,0,1,1-3.53-3.53,3.53,3.53,0,0,1,3.53,3.53"></path>
        <path class="cls-3" d="M159.15,19.18a3.53,3.53,0,1,1-3.53-3.53,3.53,3.53,0,0,1,3.53,3.53"></path>
        <path class="cls-3" d="M169.63,21a3.53,3.53,0,1,1-3.53-3.53A3.53,3.53,0,0,1,169.63,21"></path>
        <path class="cls-3" d="M187.25,30.15a3.53,3.53,0,1,1-3.53-3.53,3.53,3.53,0,0,1,3.53,3.53"></path>
        <path class="cls-3" d="M204.63,29.2a3.53,3.53,0,1,1-3.53-3.53,3.53,3.53,0,0,1,3.53,3.53"></path>
        <path class="cls-3" d="M157.93,29.09a3.53,3.53,0,1,1-3.53-3.53,3.53,3.53,0,0,1,3.53,3.53"></path>
        <path class="cls-3" d="M177.42,35.41a3.53,3.53,0,1,1-3.53-3.53,3.53,3.53,0,0,1,3.53,3.53"></path>
        <path class="cls-3" d="M185.39,42a3.53,3.53,0,1,1-3.53-3.53A3.53,3.53,0,0,1,185.39,42"></path>
        <path class="cls-3" d="M197.65,41.31a3.53,3.53,0,1,1-3.53-3.53,3.53,3.53,0,0,1,3.53,3.53"></path>
        <path class="cls-3" d="M191.48,50.32a3.53,3.53,0,1,1-3.53-3.53,3.53,3.53,0,0,1,3.53,3.53"></path>
        <path class="cls-3" d="M202.73,50.68a3.53,3.53,0,1,1-3.53-3.53,3.53,3.53,0,0,1,3.53,3.53"></path>
        <path class="cls-3" d="M218.3,58a3.53,3.53,0,1,1-3.53-3.53A3.53,3.53,0,0,1,218.3,58"></path>
        <path class="cls-3" d="M218.85,79.35a3.53,3.53,0,1,1-3.53-3.53,3.53,3.53,0,0,1,3.53,3.53"></path>
        <path class="cls-3" d="M204.34,85.33a3.53,3.53,0,1,1-3.53-3.53,3.53,3.53,0,0,1,3.53,3.53"></path>
        <path class="cls-3" d="M195.32,80.48A3.53,3.53,0,1,1,191.79,77a3.53,3.53,0,0,1,3.53,3.53"></path>
        <path class="cls-3" d="M191.52,90.09A3.53,3.53,0,1,1,188,86.56a3.53,3.53,0,0,1,3.53,3.53"></path>
        <path class="cls-3" d="M200.16,95.13a3.53,3.53,0,1,1-3.53-3.53,3.53,3.53,0,0,1,3.53,3.53"></path>
        <path class="cls-3" d="M209.65,104.36a3.53,3.53,0,1,1-3.53-3.53,3.53,3.53,0,0,1,3.53,3.53"></path>
        <path class="cls-3" d="M185.45,98.44a3.53,3.53,0,1,1-3.53-3.53,3.53,3.53,0,0,1,3.53,3.53"></path>
        <path class="cls-3" d="M187.34,110.26a3.53,3.53,0,1,1-3.53-3.53,3.53,3.53,0,0,1,3.53,3.53"></path>
        <path class="cls-3" d="M177.5,105a3.53,3.53,0,1,1-3.53-3.53A3.53,3.53,0,0,1,177.5,105"></path>
        <path class="cls-3" d="M168.16,109.43a3.53,3.53,0,1,1-3.53-3.53,3.53,3.53,0,0,1,3.53,3.53"></path>
        <path class="cls-3" d="M174.13,117.9a3.53,3.53,0,1,1-3.53-3.53,3.53,3.53,0,0,1,3.53,3.53"></path>
        <path class="cls-3" d="M163.86,120.74a3.53,3.53,0,1,1-3.53-3.53,3.53,3.53,0,0,1,3.53,3.53"></path>
        <path class="cls-3" d="M144,120.17a3.53,3.53,0,1,1-3.53-3.53,3.53,3.53,0,0,1,3.53,3.53"></path>
        <path class="cls-3" d="M139.74,132.38a3.53,3.53,0,1,1-3.53-3.53,3.53,3.53,0,0,1,3.53,3.53"></path>
        <path class="cls-3" d="M147.71,110.72a3.53,3.53,0,1,1-3.53-3.53,3.53,3.53,0,0,1,3.53,3.53"></path>
        <path class="cls-3" d="M158,111.36a3.53,3.53,0,1,1-3.53-3.53,3.53,3.53,0,0,1,3.53,3.53"></path>
        <path class="cls-3" d="M166.36,133.38a3.53,3.53,0,1,1-3.53-3.53,3.53,3.53,0,0,1,3.53,3.53"></path>
        <path class="cls-3" d="M186.51,126.26a3.53,3.53,0,1,1-3.53-3.53,3.53,3.53,0,0,1,3.53,3.53"></path>
        <path class="cls-3" d="M195.3,59.91a3.53,3.53,0,1,1-3.53-3.53,3.53,3.53,0,0,1,3.53,3.53"></path>
        <path class="cls-3" d="M196.61,70.24a3.53,3.53,0,1,1-3.53-3.53,3.53,3.53,0,0,1,3.53,3.53"></path>
        <path class="cls-3" d="M147.62,29.77a3.53,3.53,0,1,1-3.53-3.53,3.53,3.53,0,0,1,3.53,3.53"></path>
        <path class="cls-3" d="M168.07,31a3.53,3.53,0,1,1-3.53-3.53A3.53,3.53,0,0,1,168.07,31"></path>
        <path class="cls-3" d="M137.81,33a3.53,3.53,0,1,1-3.53-3.53A3.53,3.53,0,0,1,137.81,33"></path>
        <path class="cls-3" d="M129.1,38.52A3.53,3.53,0,1,1,125.57,35a3.53,3.53,0,0,1,3.53,3.53"></path>
        <path class="cls-3" d="M122,46.06a3.53,3.53,0,1,1-3.53-3.53A3.53,3.53,0,0,1,122,46.06"></path>
        <path class="cls-3" d="M117.07,55.11a3.53,3.53,0,1,1-3.53-3.53,3.53,3.53,0,0,1,3.53,3.53"></path>
        <path class="cls-3" d="M114.52,65.12A3.53,3.53,0,1,1,111,61.59a3.53,3.53,0,0,1,3.53,3.53"></path>
        <path class="cls-3" d="M104.29,67.28a3.53,3.53,0,1,1-3.53-3.53,3.53,3.53,0,0,1,3.53,3.53"></path>
        <path class="cls-3" d="M91.46,74.55A3.53,3.53,0,1,1,87.93,71a3.53,3.53,0,0,1,3.53,3.53"></path>
        <path class="cls-3" d="M104.78,77.92a3.53,3.53,0,1,1-3.53-3.53,3.53,3.53,0,0,1,3.53,3.53"></path>
        <path class="cls-3" d="M114.53,75.45A3.53,3.53,0,1,1,111,71.92a3.53,3.53,0,0,1,3.53,3.53"></path>
        <path class="cls-3" d="M117.1,85.45a3.53,3.53,0,1,1-3.53-3.53,3.53,3.53,0,0,1,3.53,3.53"></path>
        <path class="cls-3" d="M109.29,92.5A3.53,3.53,0,1,1,105.76,89a3.53,3.53,0,0,1,3.53,3.53"></path>
        <path class="cls-3" d="M98.75,100.18a3.53,3.53,0,1,1-3.53-3.53,3.53,3.53,0,0,1,3.53,3.53"></path>
        <path class="cls-3" d="M122.09,94.48A3.53,3.53,0,1,1,118.56,91a3.53,3.53,0,0,1,3.53,3.53"></path>
        <path class="cls-3" d="M129.16,102a3.53,3.53,0,1,1-3.53-3.53,3.53,3.53,0,0,1,3.53,3.53"></path>
        <path class="cls-3" d="M137.88,107.54a3.53,3.53,0,1,1-3.53-3.53,3.53,3.53,0,0,1,3.53,3.53"></path>
        <path class="cls-3" d="M129.84,114.58a3.53,3.53,0,1,1-3.53-3.53,3.53,3.53,0,0,1,3.53,3.53"></path>
        <path class="cls-3" d="M121.21,108.34a3.53,3.53,0,1,1-3.53-3.53,3.53,3.53,0,0,1,3.53,3.53"></path>
        <path class="cls-3" d="M111.74,117.15a3.53,3.53,0,1,1-3.53-3.53,3.53,3.53,0,0,1,3.53,3.53"></path>
        <path class="cls-3" d="M183.72,12.74a3.53,3.53,0,1,1-3.53-3.53,3.53,3.53,0,0,1,3.53,3.53"></path>
        <path class="cls-3" d="M206.6,70.24a3.53,3.53,0,1,1-3.53-3.53,3.53,3.53,0,0,1,3.53,3.53"></path>
        <path class="cls-3" d="M97.33,43.16a3.53,3.53,0,1,1-3.53-3.53,3.53,3.53,0,0,1,3.53,3.53"></path>
      </g>
    </g>
  </g>
</svg>
