<?xml version="1.0" encoding="utf-8"?>
<!-- Generator: Adobe Illustrator 23.0.1, SVG Export Plug-In . SVG Version: 6.00 Build 0)  -->
<svg version="1.1" id="Layer_1" xmlns="http://www.w3.org/2000/svg" xmlns:xlink="http://www.w3.org/1999/xlink" x="0px" y="0px"
	 viewBox="0 0 650.07 224.85" style="enable-background:new 0 0 650.07 224.85;" xml:space="preserve">
<style type="text/css">
	.st0{fill:none;}
	.st1{fill:#5C5E5C;}
	.st2{fill:#2B979B;}
	.st3{fill:#72BFBF;}
	.st4{fill:#FFFFFF;}
</style>
<g>
	<g>
		<g>
			<path class="st0" d="M222.96,105.26c2.6,0,4.92-0.49,6.88-1.46c1.96-0.97,3.5-2.16,4.58-3.56c1.13-1.46,2.07-3.25,2.8-5.32
				c0.75-2.13,1.24-4.14,1.47-5.98c0.24-1.9,0.36-3.89,0.36-5.92c0-6.22-1.61-11.35-4.79-15.26c-3.13-3.84-7.17-5.71-12.37-5.71
				c-4.76,0-8.48,1.94-11.38,5.93c-2.99,4.11-4.5,9.64-4.5,16.42c0,6.62,1.61,11.82,4.8,15.48
				C213.98,103.49,217.95,105.26,222.96,105.26z"/>
			<path class="st1" d="M258.02,67.63c-1.81-4.8-4.39-9-7.67-12.49c-3.29-3.5-7.4-6.28-12.22-8.26c-4.8-1.97-10.11-2.97-15.81-2.97
				c-7.39,0-14.06,1.66-19.81,4.93c-5.78,3.29-10.3,7.95-13.46,13.85c-3.13,5.86-4.72,12.63-4.72,20.11c0,7.89,1.57,15,4.68,21.13
				c3.13,6.19,7.68,11.09,13.53,14.56c5.83,3.46,12.63,5.21,20.21,5.21c7.26,0,13.84-1.68,19.55-4.99
				c5.74-3.32,10.3-8.14,13.56-14.33c3.24-6.14,4.88-13.29,4.88-21.26C260.74,77.62,259.82,72.41,258.02,67.63z M206.02,84.39
				c0-6.78,1.52-12.31,4.5-16.42c2.9-3.99,6.62-5.93,11.38-5.93c5.19,0,9.24,1.87,12.37,5.71c3.18,3.91,4.79,9.04,4.79,15.26
				c0,2.03-0.12,4.03-0.36,5.92c-0.23,1.84-0.73,3.86-1.47,5.98c-0.73,2.07-1.67,3.86-2.8,5.32c-1.08,1.4-2.62,2.59-4.58,3.56
				c-1.96,0.97-4.28,1.46-6.88,1.46c-5.01,0-8.98-1.76-12.14-5.39C207.63,96.21,206.02,91.01,206.02,84.39z"/>
		</g>
		<g>
			<path class="st0" d="M301.14,63.26c-1.41-0.27-3.58-0.41-6.43-0.41h-4.04v16.21h3.48c3.15,0,5.46-0.18,6.87-0.55
				c1.24-0.32,2.2-0.81,2.84-1.46c1.37-1.37,2.06-3.49,2.06-6.29c0-2.73-0.66-4.77-1.95-6.07
				C303.24,63.96,302.31,63.49,301.14,63.26z"/>
			<path class="st1" d="M321.5,52.37c-3.26-3.22-7.16-5.34-11.58-6.29c-4.2-0.91-9.84-1.37-16.76-1.37h-22.68
				c-1.01,0-1.83,0.82-1.83,1.83v75.57c0,1.01,0.82,1.83,1.83,1.83h18.37c1.01,0,1.83-0.82,1.83-1.83V97.43h4.04
				c5.71,0,10.63-0.55,14.61-1.64c4.14-1.13,7.98-3.44,11.38-6.83c1.92-1.84,3.66-4.35,5.17-7.47c1.53-3.17,2.31-7.08,2.31-11.61
				C328.18,62.69,325.93,56.81,321.5,52.37z M303.87,77.05c-0.65,0.65-1.61,1.14-2.84,1.46c-1.41,0.37-3.72,0.55-6.87,0.55h-3.48
				V62.86h4.04c2.85,0,5.02,0.14,6.43,0.41c1.18,0.23,2.11,0.7,2.84,1.43c1.3,1.3,1.95,3.34,1.95,6.07
				C305.94,73.57,305.24,75.68,303.87,77.05z"/>
		</g>
		<path class="st1" d="M385.92,105.23H357.6V92.78h25.61c1.01,0,1.83-0.82,1.83-1.83V76.46c0-1.01-0.82-1.83-1.83-1.83H357.6V63.19
			h27.38c1.01,0,1.83-0.82,1.83-1.83V46.53c0-1.01-0.82-1.83-1.83-1.83h-47.8c-1.01,0-1.83,0.82-1.83,1.83v75.57
			c0,1.01,0.82,1.83,1.83,1.83h48.74c1.01,0,1.83-0.82,1.83-1.83v-15.05C387.75,106.04,386.93,105.23,385.92,105.23z"/>
		<path class="st1" d="M457.83,44.71h-16.76c-0.49,0-0.95,0.19-1.3,0.54c-0.34,0.35-0.53,0.81-0.53,1.3l0.33,39.32l-25.96-40.33
			c-0.34-0.52-0.92-0.84-1.54-0.84h-16.32c-1.01,0-1.83,0.82-1.83,1.83v75.57c0,1.01,0.82,1.83,1.83,1.83h16.87
			c0.49,0,0.95-0.19,1.3-0.54c0.34-0.35,0.53-0.82,0.53-1.3l-0.38-40.05l27.07,41.07c0.34,0.51,0.91,0.82,1.53,0.82h15.16
			c1.01,0,1.83-0.82,1.83-1.83V46.53C459.65,45.52,458.83,44.71,457.83,44.71z"/>
		<path class="st1" d="M511.89,105.23h-23.16V46.53c0-1.01-0.82-1.83-1.83-1.83H468.1c-1.01,0-1.83,0.82-1.83,1.83v75.57
			c0,1.01,0.82,1.83,1.83,1.83h36.88L511.89,105.23z"/>
		<path class="st1" d="M558.91,45.91c-0.26-0.72-0.95-1.2-1.72-1.2h-18.59c-0.77,0-1.46,0.48-1.72,1.21l-27.27,75.57
			c-0.2,0.56-0.12,1.18,0.22,1.67c0.34,0.49,0.9,0.78,1.5,0.78h18.92c0.79,0,1.5-0.51,1.74-1.27l4.02-12.56h23.82l3.91,12.55
			c0.24,0.76,0.95,1.28,1.75,1.28h19.25c0.6,0,1.15-0.29,1.5-0.78c0.34-0.49,0.42-1.11,0.22-1.67L558.91,45.91z M547.71,72.15
			l6.44,20.35h-12.68L547.71,72.15z"/>
		<path class="st1" d="M648.7,92.22c-0.9-2.1-2.03-3.8-3.35-5.05c-1.27-1.2-2.72-2.23-4.32-3.06c-0.61-0.32-1.18-0.59-1.74-0.83
			c0.83-0.48,1.63-1.07,2.39-1.76c1-0.92,1.97-2.01,2.89-3.24c0.98-1.32,1.75-3.01,2.31-5.03c0.54-1.96,0.81-4.11,0.81-6.4
			c0-2.88-0.42-5.58-1.26-8.01c-0.86-2.51-2.48-4.94-4.81-7.22c-2.77-2.77-6.16-4.65-10.05-5.58c-3.7-0.88-8.31-1.32-13.7-1.32
			h-26.5c-1.01,0-1.83,0.82-1.83,1.83v75.57c0,1.01,0.82,1.83,1.83,1.83h25.39c2.84,0,5.26-0.07,7.18-0.2
			c1.97-0.13,4.22-0.44,6.69-0.91c2.58-0.49,5-1.33,7.18-2.47c2.18-1.15,4.19-2.64,5.95-4.39c4.19-4.03,6.31-9.63,6.31-16.64
			C650.07,96.71,649.61,94.33,648.7,92.22z M625.48,71.97c-0.37,0.82-0.82,1.44-1.33,1.85c-0.54,0.43-1.3,0.79-2.25,1.05
			c-1.08,0.3-2.07,0.48-2.96,0.55c-0.96,0.07-2.15,0.11-3.54,0.11h-4.59V62.63h6.75c1.3,0,2.42,0.08,3.33,0.22
			c0.86,0.14,1.79,0.43,2.76,0.86c0.75,0.33,1.31,0.87,1.73,1.65c0.46,0.87,0.7,2.04,0.7,3.46
			C626.06,70.07,625.86,71.13,625.48,71.97z M610.79,92.23h6.42c2.69,0,4.71,0.15,6.01,0.45c1.11,0.26,2.09,0.82,2.99,1.72
			c1.09,1.09,1.62,2.48,1.62,4.24c0,2.1-0.6,3.72-1.84,4.96c-0.89,0.89-3,1.95-8,1.95h-7.19V92.23z"/>
	</g>
	<g>
		<g>
			<g>
				<path class="st2" d="M426.64,159.77c0,3.02-0.51,5.87-1.53,8.54c-1.02,2.67-2.47,4.95-4.36,6.84c-1.11,1.11-2.33,2.05-3.65,2.82
					c-1.33,0.77-2.58,1.36-3.78,1.77c-1.19,0.41-2.62,0.72-4.27,0.94c-1.65,0.22-3.09,0.35-4.3,0.4c-1.21,0.05-2.77,0.08-4.69,0.08
					h-8.78c-0.27,0-0.5-0.22-0.5-0.5v-41.12c0-0.27,0.23-0.5,0.5-0.5h9.79c0.27,0,0.73,0,1,0c0,0,2.91,0.01,4,0.04
					c1.09,0.03,2.42,0.14,3.98,0.34c1.56,0.2,2.87,0.48,3.92,0.85c1.05,0.37,2.18,0.91,3.39,1.62c1.21,0.71,2.34,1.59,3.39,2.64
					c1.85,1.85,3.29,4.11,4.33,6.77S426.64,156.79,426.64,159.77z M419.3,159.58c0-4.69-1.35-8.38-4.04-11.07
					c-0.7-0.7-1.46-1.29-2.28-1.77s-1.6-0.85-2.34-1.11s-1.67-0.45-2.79-0.57c-1.12-0.12-2.1-0.2-2.93-0.23
					c-0.83-0.03-1.99-0.05-3.47-0.05h-2.86c-0.28,0-0.5,0.22-0.5,0.5v29.52c0,0.27,0.22,0.5,0.5,0.5h3.99c0.27,0,0.72-0.01,1-0.03
					c0,0,4.7-0.29,6.72-0.94c2.01-0.65,3.75-1.74,5.21-3.28C418.03,168.4,419.3,164.58,419.3,159.58z"/>
			</g>
			<g>
				<path class="st2" d="M464.69,180.71c0.11,0.25-0.02,0.46-0.3,0.46h-6.71c-0.27,0-0.59-0.21-0.7-0.46l-4.65-10.34
					c-0.11-0.25-0.3-0.66-0.42-0.91c0,0-0.65-1.4-1.02-2.08c-0.37-0.68-0.77-1.24-1.2-1.7s-0.82-0.8-1.17-1.05
					c-0.35-0.25-0.82-0.44-1.42-0.57c-0.6-0.13-1.13-0.21-1.59-0.23c-0.46-0.02-1.15-0.03-2.05-0.03h-1.26c-0.27,0-0.5,0.22-0.5,0.5
					v16.36c0,0.28-0.23,0.5-0.5,0.5h-6.18c-0.27,0-0.5-0.22-0.5-0.5v-41.12c0-0.27,0.23-0.5,0.5-0.5h9.08c0.28,0,0.63,0,0.8,0
					c0,0,0,0,0.23,0c1.42,0,2.48,0.01,3.19,0.03s1.63,0.09,2.77,0.2c1.14,0.11,2.07,0.29,2.77,0.52c0.71,0.24,1.48,0.58,2.31,1.03
					c0.83,0.45,1.59,1.02,2.27,1.7c2.26,2.26,3.39,5.08,3.39,8.45c0,3.12-0.92,5.61-2.77,7.46c-1.75,1.75-3.94,2.8-6.57,3.14
					c0.74,0.06,1.38,0.24,1.93,0.54c0.54,0.3,1.15,0.78,1.8,1.43c0.31,0.31,0.6,0.64,0.86,1s0.54,0.8,0.82,1.31
					c0.28,0.51,0.49,0.91,0.63,1.2c0.14,0.29,0.38,0.79,0.69,1.5s0.52,1.16,0.6,1.34L464.69,180.71z M454.6,151.16
					c0-0.92-0.15-1.8-0.46-2.64c-0.31-0.83-0.68-1.46-1.11-1.9c-0.58-0.58-1.27-1-2.1-1.26c-0.82-0.27-1.55-0.42-2.19-0.46
					s-1.61-0.06-2.93-0.06c-0.29,0-0.51,0-0.68,0h-2.92c-0.27,0-0.5,0.22-0.5,0.5v12.26c0,0.28,0.23,0.5,0.5,0.5h1.77
					c0.27,0,0.72-0.01,1-0.02c0,0,3.24-0.12,4.5-0.38c1.25-0.27,2.32-0.84,3.21-1.73C453.96,154.7,454.6,153.1,454.6,151.16z"/>
			</g>
			<g>
				<path class="st2" d="M478.49,180.66c0,0.28-0.23,0.5-0.5,0.5h-6.31c-0.28,0-0.5-0.22-0.5-0.5v-41.12c0-0.27,0.22-0.5,0.5-0.5
					h6.31c0.27,0,0.5,0.23,0.5,0.5V180.66z"/>
			</g>
			<g>
				<path class="st2" d="M512.32,180.66c0,0.28-0.23,0.5-0.5,0.5h-23.23c-0.27,0-0.5-0.22-0.5-0.5v-41.12c0-0.27,0.23-0.5,0.5-0.5
					h6.31c0.27,0,0.5,0.23,0.5,0.5v35.04c0,0.27,0.22,0.5,0.5,0.5h15.93c0.27,0,0.5,0.22,0.5,0.5V180.66z"/>
			</g>
			<g>
				<path class="st2" d="M544.07,180.66c0,0.28-0.22,0.5-0.5,0.5h-23.23c-0.28,0-0.5-0.22-0.5-0.5v-41.12c0-0.27,0.22-0.5,0.5-0.5
					h6.31c0.28,0,0.5,0.23,0.5,0.5v35.04c0,0.27,0.22,0.5,0.5,0.5h15.93c0.28,0,0.5,0.22,0.5,0.5V180.66z"/>
			</g>
			<g>
				<path class="st2" d="M558.9,180.66c0,0.28-0.22,0.5-0.5,0.5h-6.31c-0.27,0-0.5-0.22-0.5-0.5v-41.12c0-0.27,0.23-0.5,0.5-0.5
					h6.31c0.28,0,0.5,0.23,0.5,0.5V180.66z"/>
			</g>
			<g>
				<path class="st2" d="M600.43,180.66c0,0.28-0.22,0.5-0.5,0.5h-5.63c-0.27,0-0.62-0.19-0.76-0.43l-18.29-29.95
					c-0.14-0.23-0.26-0.2-0.26,0.07l0.18,29.8c0,0.27-0.22,0.5-0.5,0.5h-5.69c-0.27,0-0.5-0.22-0.5-0.5v-41.12
					c0-0.27,0.23-0.5,0.5-0.5h5.88c0.28,0,0.62,0.19,0.76,0.43l18.04,29.88c0.14,0.24,0.26,0.2,0.26-0.07l-0.18-29.74
					c0-0.27,0.22-0.5,0.5-0.5h5.69c0.28,0,0.5,0.23,0.5,0.5V180.66z"/>
			</g>
			<g>
				<path class="st2" d="M643.46,177.08c0,0.28-0.07,0.53-0.16,0.57c0,0,0,0-0.25,0.14c-0.25,0.14-0.48,0.25-0.67,0.34
					c-0.2,0.09-0.5,0.22-0.91,0.4c-0.41,0.18-0.8,0.33-1.16,0.47c-0.36,0.14-0.82,0.3-1.36,0.48c-0.55,0.19-1.08,0.34-1.6,0.47
					c-0.52,0.13-1.12,0.26-1.8,0.41s-1.36,0.26-2.04,0.35c-0.67,0.09-1.41,0.16-2.21,0.22c-0.8,0.06-1.61,0.09-2.43,0.09
					c-2.77,0-5.36-0.47-7.77-1.42s-4.49-2.29-6.26-4.03s-3.16-3.91-4.16-6.52c-1.01-2.61-1.51-5.48-1.51-8.63
					c0-3.26,0.53-6.24,1.6-8.94c1.06-2.7,2.53-4.94,4.38-6.73c1.86-1.79,4.03-3.16,6.52-4.13c2.49-0.97,5.17-1.45,8.04-1.45
					c1.56,0,3.06,0.14,4.5,0.41s2.63,0.59,3.58,0.95c0.95,0.36,1.81,0.76,2.58,1.19c0.77,0.43,1.32,0.78,1.66,1.04
					c0.33,0.26,0.55,0.45,0.64,0.57l-2.72,4.24c-0.15,0.23-0.47,0.32-0.72,0.2c0,0-5.43-2.65-9.16-2.65c-3.97,0-7.26,1.33-9.88,4
					s-3.93,6.26-3.93,10.77c0,4.59,1.22,8.27,3.65,11.03c2.43,2.76,5.78,4.15,10.04,4.15c2.6,0,4.89-0.4,6.89-1.2v-8.09
					c0-0.28-0.22-0.5-0.5-0.5h-7.03c-0.27,0-0.5-0.23-0.5-0.5v-4.33c0-0.28,0.23-0.5,0.5-0.5h13.65c0.28,0,0.5,0.22,0.5,0.5V177.08z
					"/>
			</g>
		</g>
	</g>
	<path id="XMLID_7_" class="st3" d="M130.14,20.41v184.03c0,0.61-0.5,1.11-1.11,1.11H96.16v-13.3h19.57c0.61,0,1.11-0.5,1.11-1.11
		V33.72c0-0.61-0.5-1.11-1.11-1.11H96.16v-13.3h32.87C129.65,19.31,130.14,19.8,130.14,20.41z"/>
	<path id="XMLID_2_" class="st2" d="M0,20.49l0,183.44c0,0.52,0.37,0.97,0.88,1.08l93.98,19.82c0.69,0.14,1.33-0.38,1.33-1.08V1.11
		c0-0.7-0.64-1.22-1.33-1.08L0.88,19.4C0.37,19.51,0,19.96,0,20.49z"/>
	<g>
		<path class="st4" d="M74.53,116.04c0,0.27-0.22,0.49-0.5,0.48l-25.44-1.23c-0.27-0.01-0.5-0.25-0.5-0.52v-5.6
			c0-0.28,0.22-0.51,0.5-0.52l25.44-0.98c0.27-0.01,0.5,0.21,0.5,0.48V116.04z"/>
	</g>
	<path class="st1" d="M504.98,123.93"/>
</g>
</svg>
