<svg xmlns="http://www.w3.org/2000/svg" width="155.356" height="42" viewBox="0 0 155.356 42">
  <defs>
    <style>
      .cls-1 {
        fill: #d0043c;
      }

      .cls-2 {
        fill: #1a171b;
      }
    </style>
  </defs>
  <g id="Logo_web_liten" data-name="Logo web liten" transform="translate(-91 -47)">
    <g id="Group_205" data-name="Group 205" transform="translate(91 47)">
      <path id="Path_979" data-name="Path 979" class="cls-1" d="M48.125,9.758A1.089,1.089,0,0,0,47.544,9c-1.52-.894-3.085.268-4.6.268-.581,0-1.162.134-1.609-.179,0-.268.268-.313.268-.581-.4-.045-.849-.134-1.3-.224a6.1,6.1,0,0,1-1.52-.268c-2.1-.894-4.068-1.341-6.527-.179a6.213,6.213,0,0,1-2.369.626c-.4,0,.581.76.447,1.162A6.079,6.079,0,0,0,26.8,11.233v.045a3.68,3.68,0,0,0,3.085,1.073c.4,0,1.073.894,2.861,1.162,2.638.492,4.158-.939,5.991-.179a1.614,1.614,0,0,1-.134-.76,7.507,7.507,0,0,0,5.544-.313c1.609-.4,2.28-2.548,3.979-2.5" transform="translate(-14.774 -3.946)"/>
      <path id="Path_980" data-name="Path 980" class="cls-2" d="M10.5,6.259l1.744-.939c.313.045.313.4.492.581.447-.134.268-.76.492-1.073.268,0,.268.4.447.581.447,0,.313-.715.492-1.028.268-.4.939-.268.849-.894L14.385.626c-.089-.358-.268-.492-.4-.447-2.28.849-4.068,1.654-6.259,2.414a.959.959,0,0,1-.715.045L3.521,0c.179,1.52.4,2.951.492,3.845q.067.268-.134.268A2.16,2.16,0,0,0,2.091,5.32,5.04,5.04,0,0,1-.1,7.734a1.581,1.581,0,0,0,.939.849c.313.134.626.045.939.268,0,.134-.045.179-.134.313-.849,1.475.224,3.442-1.386,4.56A2.227,2.227,0,0,0,2.582,13.1l.089.045a7.618,7.618,0,0,0-.581,3.308,1.463,1.463,0,0,1-.045.581s-.134.358-.179.536c2.057-.313,2.817-2.951,3-3.4l.179.045s-.671,1.878-.089,2.727a.817.817,0,0,0,.581.358A5.287,5.287,0,0,1,7.1,14.575a7.609,7.609,0,0,1,2.28.76c.447-1.073-.536-2.682-.536-2.682l.089-.045.134.134A8.88,8.88,0,0,0,10,13.68a2.611,2.611,0,0,0,2.191.134,1.393,1.393,0,0,0,.626-.715c-2.057.134-2.191-2.414-3.129-3.621l.045-.045c.492.268.76.939,1.3,1.207,0,0,2.682.536,2.772.581.179.045.268-.268.268-.268a4.019,4.019,0,0,0,.134-1.609c-.313-.179-.447.313-.715.313a11.657,11.657,0,0,1-1.922-.581l-1.3-2.548a.718.718,0,0,1,.224-.268M9.467,4.6a.728.728,0,0,1-.76.76.718.718,0,0,1-.715-.76.718.718,0,0,1,.715-.76.728.728,0,0,1,.76.76" transform="translate(0.1)"/>
      <path id="Path_981" data-name="Path 981" class="cls-2" d="M17.931,35.923a8.806,8.806,0,0,1-2.5-.715s-.179-.134-.179.045v1.207c0,.447.4,1.028,1.922.894,0,0,.268.536-1.118,1.118-.536.224-.313.581-.313.581s.179.447,1.386.8c-.447.849-1.431.894-1.252,1.386,0,0,.134.358.894.581-.224.715-.939.984-1.118,1.386-.224.447.447.76.4.8a4.808,4.808,0,0,0-2.012,2.146,32.206,32.206,0,0,0-.849,3.442.952.952,0,0,1-.8.671c-1.073.045-1.833,0-2.772,0-.313,0-.179-.224-.179-.224.984-1.744,3.174-3.13,2.817-5.275-.939-5.723-2.638-9.076-3.621-14.083a10.044,10.044,0,0,1,.179-5.544,2.043,2.043,0,0,0,1.878,1.475c.313-1.073.984-2.861,1.431-2.951a9.107,9.107,0,0,1,2.28.849,2.76,2.76,0,0,0,.671-1.744,2.543,2.543,0,0,0,1.922.179,3.221,3.221,0,0,0,1.967-1.3,5,5,0,0,1-.4,3.442s-.045.089,0,.134c0,0,.045.089.179,0a6.075,6.075,0,0,0,1.252-.8c.358-.313,1.3-1.475,1.3-1.475a3.126,3.126,0,0,1,.045,2.817s-.179.313.224.224c.984-.179,1.7-2.012,2.369-2.325,0,0,.045-.045.045,0a8.017,8.017,0,0,0,.358,2.638s.089.179.179,0c.358-.581.984-2.012,1.609-2.146,0,.939.224,2.369.626,2.414.358.045.671-.894.849-1.3.179-.492.447-.849.715-.849.045.849.358,2.1,1.073,2.1.313,0,.268-.581.313-1.028.134-.76.492-.939.492-.939a2.774,2.774,0,0,0,1.028,1.565c.179.089.358.134.358-.179a2.081,2.081,0,0,1,.4-1.475c.045.089.179.313.268.492a.924.924,0,0,0,1.073.447.7.7,0,0,0,.447-.492,5.255,5.255,0,0,1-.894-2.057,2.1,2.1,0,0,1,1.073-2.191,1.762,1.762,0,0,1,1.922.045,1.552,1.552,0,0,1,.581,1.162,1,1,0,0,1-.536.939.83.83,0,0,1-.849-.045c-.224-.179-.447-.536-.626-.626-.179.447.134.939.4,1.3a1.169,1.169,0,0,0,1.475.268c1.654-1.207,1.341-2.459,2.369-4.918a7.063,7.063,0,0,1,.894-1.609c.045-.045.089-.134.134-.179a4.572,4.572,0,0,1,8.36,2.548,4.643,4.643,0,0,1-1.3,3.219L46.543,23c-.358.268-.4.536-.224.671a6.712,6.712,0,0,1,1.028.894c1.609,1.922,2.28,4.158,3.174,6.393a5.253,5.253,0,0,0,.939,1.609A3.583,3.583,0,0,0,53.7,33.6c.089,0-.492.671-.045.939a2.113,2.113,0,0,0,1.565-.089c.134.939-1.386,1.341-1.252,1.654.089.268.76.536,1.609.4-.179.715-.984.715-1.028,1.207,0,.447.4.671,1.073.536a4.028,4.028,0,0,1-.76.894,1.23,1.23,0,0,0-.224,1.341,3.643,3.643,0,0,0,1.118,1.609,7.415,7.415,0,0,1,1.028.849c-1.654.894-1.3,2.369-1.341,3.13a.357.357,0,0,1-.268.268l-3.353.536c-.268.045-.492-.045-.179-.447a24.094,24.094,0,0,0,2.414-2.951,4.361,4.361,0,0,0-.536-1.162c-1.118-1.744-2.1-3.4-3.129-5.186a.686.686,0,0,0-.447-.268,21.659,21.659,0,0,1-7.2-2.369c-.134-.045-.134.134-.134.134a4.978,4.978,0,0,0,.179,1.878c.581.894,2.191.447,2.459.447-.045.626-.4.939-1.028,1.341,0,0-.134.089-.089.179.089.224.626.089,1.118-.089-.268.939-1.118.894-1.028,1.252a.612.612,0,0,0,.626.4c-.492.671-1.207.76-1.207,1.252l.134,2.28s0,.089-.045.089a.637.637,0,0,1-.179.089l-3.264.76a.328.328,0,0,1-.268-.089.225.225,0,0,1,.045-.268l2.1-3.174c.134-.715-.4-1.162-.715-1.7a9.034,9.034,0,0,0-2.28-2.1,6.172,6.172,0,0,1-.894-2.325c-.045-.179-.268-.134-.447.045A6.192,6.192,0,0,0,36.663,36.5c-.134.313.134.536.536.626a2.244,2.244,0,0,0,1.073-.045c.045.581-.671,1.028-1.073,1.252,0,0-.134.045-.045.134a1.386,1.386,0,0,0,1.028.179,1.729,1.729,0,0,1-.939,1.073c-.671.4.447.358.581.313-.179.4-.76.939-.984,1.341-.447.849-.134,1.922-.179,2.861-.045.179-.268.268-.492.313l-3.442.134c-.224,0-.179-.268-.045-.4L35.1,41.333c.179-.268,0-.4-.089-.536a21.755,21.755,0,0,1-2.727-4.471c-.492.045-1.341.313-1.475.8-.089.447.894.536,1.341.536,0,0,.089.447-1.207.894a2.244,2.244,0,0,0-.894.536s-.089.089.045.179a2.252,2.252,0,0,0,1.118.224c-.492.715-2.012.671-2.28.939-.134.134.179.447,1.028.447-.447.581-1.162.492-1.833.671,0,0-.313.045-.224.224.224.447.8.313.671.492a2.885,2.885,0,0,1-1.252.536.878.878,0,0,0-.447.268c-.268.268-.179.581-.358.984a9.9,9.9,0,0,1-1.028,1.922.124.124,0,0,1-.179,0l-2.28-1.833c-.179-.134-.089-.4-.089-.4.224-.447.671-.536,1.162-.8a6.439,6.439,0,0,0,1.788-1.386.415.415,0,0,0,.134-.268c.268-1.654.8-3.219,1.162-4.828.089-.492-.447-.4-.447-.4a13.256,13.256,0,0,1-4.068.268c-.179,0-.224.045-.4.4-.179.447-.447.76-.179,1.118.492.626,1.788.134,1.788.179-.447,1.118-1.654.894-2.146,1.565a.283.283,0,0,0-.045.358c.134.179.671.224,1.52.045a2.009,2.009,0,0,1-1.118,1.028c-.626.179-1.028.268-1.118.536-.045.224.134.4,1.118.313a1.655,1.655,0,0,1-1.118.984,1.194,1.194,0,0,0-.8.8,20.1,20.1,0,0,1-.894,2.28s-.089.089-.224-.045l-1.967-1.744a.159.159,0,0,1-.089-.134c-.179-.268.358-.536.581-.715.492-.4,1.341-.76,1.475-1.609a6.148,6.148,0,0,0-.671-3,7.623,7.623,0,0,1-.179-2.459C18.02,35.923,17.931,35.923,17.931,35.923ZM37.6,24.3c-.045.045-.045.089,0,.089a3.974,3.974,0,0,0,2.1-.894,9.116,9.116,0,0,0,2.1-2.235,2.636,2.636,0,0,0,1.744.671A2.547,2.547,0,0,0,46.1,19.381a2.577,2.577,0,0,0-2.5-2.593h-.268c-1.162.045-1.922.715-2.682,2.1-.626,1.207-1.475,3.755-2.951,5.32L37.6,24.3" transform="translate(-4.563 -8.294)"/>
    </g>
    <g id="Group_206" data-name="Group 206" transform="translate(149.79 58.311)">
      <path id="Path_982" data-name="Path 982" d="M138.285,51.524h-1.833a1.983,1.983,0,0,1-2.012-1.3l-3.04-9.746,2.146-.581,2.682,8.673c.179.581.224.715.4.715l2.593-8.807,2.548-.536Z" transform="translate(-131.4 -33.373)"/>
      <path id="Path_983" data-name="Path 983" d="M164.63,43.183V42.065a3.514,3.514,0,0,1-3.04,1.341c-2.593,0-3.89-1.7-3.89-3.442,0-2.191,1.654-3.4,3.89-3.666l3.04-.358v-.581c0-1.162-.671-1.386-1.7-1.386a11.16,11.16,0,0,0-3.979.984l-.4-1.967a12.278,12.278,0,0,1,4.426-1.207c3,0,3.934,1.386,3.934,3.934v7.466Zm-2.638-4.873c-1.475.179-2.1.76-2.1,1.565a1.442,1.442,0,0,0,1.654,1.565c1.833,0,3.04-1.073,3.04-3.442Zm.626-8.181a2.414,2.414,0,1,1,2.414-2.414A2.4,2.4,0,0,1,162.618,30.128Zm0-3.353a.984.984,0,1,0,.984.984A.964.964,0,0,0,162.618,26.775Z" transform="translate(-145.942 -25.3)"/>
      <path id="Path_984" data-name="Path 984" d="M191.333,42.08a4.735,4.735,0,0,0-3.353,1.341V51.2H185.7V42.527a7.732,7.732,0,0,1,5.812-2.727Z" transform="translate(-161.424 -33.317)"/>
      <path id="Path_985" data-name="Path 985" d="M222.455,46.427l-5.1.268c.089,2.548,2.727,2.682,4.739,2.682.4,0,.894-.045,1.386-.089l-.179,2.1c-.626.045-1.252.134-1.878.134-2.325,0-3.934-.492-4.962-1.431a5.694,5.694,0,0,1-1.565-4.426c0-3.577,2.593-5.767,4.962-5.767a4.168,4.168,0,0,1,4.471,4.471A1.935,1.935,0,0,1,222.455,46.427Zm-2.414-4.381a2.69,2.69,0,0,0-2.682,2.682l3.845-.179a.832.832,0,0,0,.894-.939A1.861,1.861,0,0,0,220.041,42.046Z" transform="translate(-177.57 -33.373)"/>
      <path id="Path_986" data-name="Path 986" d="M249.008,51.256V43.745c0-1.162-.626-1.654-1.431-1.654a6.493,6.493,0,0,0-3.4,1.341v7.824H241.9V42.493a9.292,9.292,0,0,1,5.812-2.593c2.593,0,3.577,1.565,3.577,3.8v7.6h-2.28Z" transform="translate(-192.499 -33.373)"/>
      <path id="Path_987" data-name="Path 987" d="M276.555,46.427l-5.1.268c.089,2.548,2.727,2.682,4.739,2.682.4,0,.894-.045,1.386-.089l-.179,2.1c-.626.045-1.252.134-1.878.134-2.325,0-3.934-.492-4.962-1.431A5.694,5.694,0,0,1,269,45.667c0-3.577,2.593-5.767,4.962-5.767a4.168,4.168,0,0,1,4.471,4.471A1.935,1.935,0,0,1,276.555,46.427Zm-2.369-4.381a2.69,2.69,0,0,0-2.682,2.682l3.845-.179a.832.832,0,0,0,.894-.939A1.893,1.893,0,0,0,274.186,42.046Z" transform="translate(-207.483 -33.373)"/>
      <path id="Path_988" data-name="Path 988" d="M302.233,42.08a4.735,4.735,0,0,0-3.353,1.341V51.2H296.6V42.527a7.732,7.732,0,0,1,5.812-2.727Z" transform="translate(-222.744 -33.317)"/>
      <path id="Path_989" data-name="Path 989" d="M317.884,55.939a10.477,10.477,0,0,1-4.024-1.118l.8-2.057a6.624,6.624,0,0,0,3.129.939,2.506,2.506,0,0,0,2.459-2.772,3.786,3.786,0,0,1-1.967.492c-3.532,0-5.186-2.951-5.186-5.767,0-3.89,2.593-5.857,5.41-5.857a5.914,5.914,0,0,1,4.024,1.565v8.763C322.578,54.553,320.342,55.939,317.884,55.939ZM320.3,42.348a4.218,4.218,0,0,0-1.609-.313c-2.325,0-3.308,1.52-3.308,3.666s1.341,3.532,3,3.532a3.158,3.158,0,0,0,1.878-.626Z" transform="translate(-231.868 -33.317)"/>
      <path id="Path_990" data-name="Path 990" d="M342.741,31.082a1.341,1.341,0,1,1,1.341-1.341A1.317,1.317,0,0,1,342.741,31.082ZM341.579,44.9V34.123l2.28-.581v11.4h-2.28Z" transform="translate(-247.515 -27.014)"/>
    </g>
  </g>
</svg>
